# xmcd
#
# Track frame offsets: 
#        150
#        13395
#        29740
#        50162
#        67102
#        86235
#        100547
#        120622
#        138805
#        157302
#
# Disc length: 2292 seconds
#
# Revision: 8
# Processed by: cddbd v1.5.2PL0 Copyright (c) Steve Scherf et al.
# Submitted via: ExactAudioCopyFreeDBPlugin 1.0
#
DISCID=9308f20a
DTITLE=Delbert McClinton - One of the Fortunate Few
DYEAR=1997
DGENRE=Country
TTITLE0=Old Weakness (Coming on Strong)
TTITLE1=Leap of Faith
TTITLE2=Somebody to Love You
TTITLE3=Sending Me Angels
TTITLE4=Too Much Stuff
TTITLE5=Monkey Around
TTITLE6=Lie No Better
TTITLE7=You Were Never Mine
TTITLE8=Better Off with the Blues
TTITLE9=Best of Me
EXTD=
EXTT0=
EXTT1=
EXTT2=
EXTT3=
EXTT4=
EXTT5=
EXTT6=
EXTT7=
EXTT8=
EXTT9=
PLAYORDER=
